<svg width="219" height="71" viewBox="0 0 219 71" fill="none" xmlns="http://www.w3.org/2000/svg">
<path d="M73.427 20.9353C76.7676 17.9668 76.129 13.7615 75.3921 12.0299C74.0166 8.86356 75.9652 7.57723 77.1115 7.32985L87.1823 4.11403L102.657 0.650832C102.657 0.650832 94.06 1.14557 92.0949 1.39295C89.6576 1.69977 76.129 3.61929 75.3921 4.11403C74.6552 4.60877 73.7976 5.61474 73.427 6.42482C72.9358 7.49875 72.8559 9.1459 72.9358 10.5457C73.0249 12.1076 73.427 14.5036 73.9183 16.2352C74.3113 17.6205 73.7545 19.9458 73.427 20.9353Z" fill="#FFFAF7"/>
<path d="M100.692 17.2247L106.342 0.156089C106.096 -0.338639 100.446 4.36139 98.9726 6.58773C97.7936 8.3688 91.1124 17.0598 87.9192 21.1826H84.9717V22.6669H86.9367C85.5448 24.5634 81.3855 28.9501 75.8833 31.3249C69.0057 34.2933 66.3037 29.0985 65.3212 28.109C64.5352 27.3174 63.5199 23.8213 63.1105 22.1721C62.8649 22.8318 62.521 24.8932 63.1105 27.8617C63.8474 31.5722 68.0231 35.2828 70.9707 35.7775C73.9183 36.2723 77.6027 34.788 81.5328 31.3249C84.6769 28.5543 88.083 24.3985 89.393 22.6669H92.6284L93.4889 21.2671H90.2957C91.7694 19.5355 95.0916 15.3942 97.2532 12.0299C99.4147 8.66566 100.446 8.31933 100.692 8.5667C100.528 9.80355 99.8569 13.2668 98.4813 17.2247C96.7619 22.1721 93.0775 28.3564 95.0425 32.5617C96.6145 35.926 99.9551 34.788 101.429 33.7986L106.342 29.3459L101.429 31.8196C100.201 32.067 97.7444 31.7206 97.7444 28.3564C97.7444 24.9921 99.382 21.3475 100.201 19.9458C102.166 21.9247 112.482 20.6879 116.412 18.9563C119.556 17.571 122.799 14.751 124.273 13.2668C125.337 17.2247 126.097 19.451 127.466 22.6669C128.203 24.3985 128.448 29.8406 128.448 30.3354C128.448 30.8301 128.448 32.5617 127.957 33.0564C127.466 33.5512 128.448 34.2933 129.185 34.0459C129.775 33.848 130.905 31.9845 131.396 31.0775C135.981 25.8002 145.348 15.0973 146.134 14.5036C147.116 13.7615 146.625 14.0089 147.116 14.751C147.509 15.3447 146.625 18.2966 146.134 19.451C144.987 22.0897 142.695 28.109 142.695 31.0775C142.695 34.788 146.134 35.0354 147.116 34.5407C147.902 34.1449 150.555 32.7266 151.783 32.067L155.468 28.3564C155.304 28.3564 154.583 28.6038 153.011 29.5933C151.046 30.8301 147.362 31.8196 146.625 31.0775C145.888 30.3354 145.397 28.8511 146.134 24.8932C146.723 21.7268 148.344 17.9668 149.081 16.4826C150.801 13.1018 154.338 5.89509 154.731 4.11403C155.222 1.8877 154.485 1.39295 153.748 1.39295C153.159 1.39295 151.374 4.19649 150.555 5.59826L141.712 16.4826L130.905 28.3564C130.986 28.1915 130.757 26.0806 129.185 19.9458C127.22 12.2773 125.746 11.2878 125.992 10.793C126.238 10.2983 126.649 7.57723 126.403 5.59826C126.158 3.61929 121.816 0.898203 118.132 0.156089C115.184 -0.437602 109.698 0.733289 107.324 1.39295C108.798 1.39295 112.777 1.54137 116.904 2.13506C121.03 2.72875 122.062 5.84563 122.062 7.32985C122.062 10.1334 120.244 16.2352 112.974 18.2142C105.703 20.1932 101.756 18.3791 100.692 17.2247Z" fill="#FFFAF7"/>
<path d="M5.447 48.0964H5.811V51.3334H5.447L5.161 50.2804C5.135 50.1764 5.10467 50.1027 5.07 50.0594C5.044 50.0074 4.98767 49.977 4.901 49.9684C4.81433 49.951 4.667 49.9424 4.459 49.9424H3.12V53.0104C3.12 53.305 3.133 53.4827 3.159 53.5434C3.185 53.5954 3.26733 53.63 3.406 53.6474L4.381 53.7384V54.1024H0.559V53.7384L1.274 53.6474C1.41267 53.63 1.495 53.5954 1.521 53.5434C1.547 53.4827 1.56 53.305 1.56 53.0104V46.3544C1.56 46.0597 1.547 45.8864 1.521 45.8344C1.495 45.7737 1.41267 45.7347 1.274 45.7174L0.559 45.6264V45.2624H6.721V47.4984H6.357L5.941 46.0554C5.915 45.9514 5.88467 45.8777 5.85 45.8344C5.824 45.7824 5.76767 45.752 5.681 45.7434C5.59433 45.726 5.447 45.7174 5.239 45.7174H3.12V49.4874H4.459C4.667 49.4874 4.81433 49.483 4.901 49.4744C4.98767 49.457 5.044 49.4267 5.07 49.3834C5.10467 49.3314 5.135 49.2534 5.161 49.1494L5.447 48.0964ZM13.7972 53.7774C13.6585 53.9074 13.4895 54.0157 13.2902 54.1024C13.0995 54.189 12.8655 54.2324 12.5882 54.2324C12.2328 54.2324 11.9338 54.1544 11.6912 53.9984C11.4572 53.8424 11.3012 53.6214 11.2232 53.3354C10.9372 53.6474 10.6208 53.877 10.2742 54.0244C9.93616 54.163 9.5895 54.2324 9.23416 54.2324C8.63616 54.2324 8.18983 54.0677 7.89516 53.7384C7.6005 53.4004 7.45316 52.98 7.45316 52.4774C7.45316 51.966 7.6395 51.5544 8.01216 51.2424C8.38483 50.9217 9.0435 50.7614 9.98816 50.7614H11.1712V49.7084C11.1712 48.989 11.0758 48.4994 10.8852 48.2394C10.7032 47.9707 10.4475 47.8364 10.1182 47.8364C9.9015 47.8364 9.70216 47.8927 9.52016 48.0054C9.33816 48.1094 9.20816 48.3087 9.13016 48.6034C9.06083 48.8894 9.07383 49.3054 9.16916 49.8514L7.73916 49.6434C7.66983 49.2447 7.71316 48.8764 7.86916 48.5384C8.03383 48.1917 8.30683 47.9144 8.68816 47.7064C9.0695 47.4897 9.55483 47.3814 10.1442 47.3814C10.8115 47.3814 11.3272 47.4897 11.6912 47.7064C12.0552 47.923 12.3065 48.209 12.4452 48.5644C12.5925 48.9197 12.6662 49.301 12.6662 49.7084V52.7114C12.6662 53.1534 12.7052 53.4307 12.7832 53.5434C12.8612 53.656 12.9478 53.7124 13.0432 53.7124C13.1992 53.7124 13.3725 53.6214 13.5632 53.4394L13.7972 53.7774ZM9.80616 53.5434C10.0315 53.5434 10.2525 53.487 10.4692 53.3744C10.6945 53.253 10.9285 53.032 11.1712 52.7114V51.2164H10.1962C9.7715 51.2164 9.46383 51.316 9.27316 51.5154C9.0825 51.7147 8.98716 52.0267 8.98716 52.4514C8.98716 52.798 9.0565 53.0667 9.19516 53.2574C9.33383 53.448 9.5375 53.5434 9.80616 53.5434ZM14.0713 44.8464V44.4824H16.5673V53.0104C16.5673 53.305 16.5803 53.4827 16.6063 53.5434C16.6323 53.5954 16.7146 53.63 16.8533 53.6474L17.5683 53.7384V54.1024H14.0713V53.7384L14.7863 53.6474C14.9249 53.63 15.0073 53.5954 15.0333 53.5434C15.0593 53.4827 15.0723 53.305 15.0723 53.0104V45.5744C15.0723 45.2797 15.0593 45.1064 15.0333 45.0544C15.0073 44.9937 14.9249 44.9547 14.7863 44.9374L14.0713 44.8464ZM21.2964 47.8364C20.8804 47.8364 20.5684 48.0357 20.3604 48.4344C20.1611 48.8244 20.0614 49.483 20.0614 50.4104V51.1904C20.0614 52.109 20.1784 52.772 20.4124 53.1794C20.6464 53.578 21.0278 53.7774 21.5564 53.7774C21.9464 53.7774 22.2628 53.669 22.5054 53.4524C22.7568 53.227 22.8998 52.85 22.9344 52.3214L23.7664 52.5554C23.6104 53.162 23.3244 53.5954 22.9084 53.8554C22.5011 54.1067 22.0201 54.2324 21.4654 54.2324C20.4688 54.2324 19.7191 53.9334 19.2164 53.3354C18.7138 52.7287 18.4624 51.927 18.4624 50.9304V50.6704C18.4624 49.6737 18.7051 48.8764 19.1904 48.2784C19.6758 47.6804 20.3778 47.3814 21.2964 47.3814C21.9031 47.3814 22.3971 47.5027 22.7784 47.7454C23.1684 47.9794 23.4414 48.2914 23.5974 48.6814C23.7621 49.0627 23.8054 49.4744 23.7274 49.9164L22.2974 50.1244C22.3928 49.3964 22.3538 48.833 22.1804 48.4344C22.0071 48.0357 21.7124 47.8364 21.2964 47.8364ZM30.9415 50.6704V50.9304C30.9415 51.927 30.6815 52.7287 30.1615 53.3354C29.6502 53.9334 28.9179 54.2324 27.9645 54.2324C27.0112 54.2324 26.2745 53.9334 25.7545 53.3354C25.2432 52.7287 24.9875 51.927 24.9875 50.9304V50.6704C24.9875 49.6737 25.2432 48.8764 25.7545 48.2784C26.2745 47.6804 27.0112 47.3814 27.9645 47.3814C28.9179 47.3814 29.6502 47.6804 30.1615 48.2784C30.6815 48.8764 30.9415 49.6737 30.9415 50.6704ZM29.3425 50.4104C29.3425 49.483 29.2255 48.8244 28.9915 48.4344C28.7575 48.0357 28.4152 47.8364 27.9645 47.8364C27.5225 47.8364 27.1802 48.0357 26.9375 48.4344C26.7035 48.8244 26.5865 49.483 26.5865 50.4104V51.1904C26.5865 52.109 26.7035 52.772 26.9375 53.1794C27.1802 53.578 27.5225 53.7774 27.9645 53.7774C28.4152 53.7774 28.7575 53.578 28.9915 53.1794C29.2255 52.772 29.3425 52.109 29.3425 51.1904V50.4104ZM27.9515 46.5754L27.6395 46.3024C27.8129 46.025 27.9689 45.752 28.1075 45.4834C28.2462 45.206 28.3589 44.8724 28.4455 44.4824H30.0835C29.7889 44.881 29.4812 45.2407 29.1605 45.5614C28.8399 45.882 28.4369 46.22 27.9515 46.5754ZM39.5673 53.7384V54.1024H36.0703V53.7384L36.7853 53.6474C36.924 53.63 37.0063 53.5954 37.0323 53.5434C37.0583 53.4827 37.0713 53.305 37.0713 53.0104V49.7344C37.0713 49.1364 36.9803 48.703 36.7983 48.4344C36.625 48.157 36.365 48.0184 36.0183 48.0184C35.871 48.0184 35.6977 48.0574 35.4983 48.1354C35.3077 48.2047 35.1127 48.3347 34.9133 48.5254C34.7227 48.716 34.5537 48.9977 34.4063 49.3704V53.0104C34.4063 53.305 34.4193 53.4827 34.4453 53.5434C34.4713 53.5954 34.5537 53.63 34.6923 53.6474L35.4073 53.7384V54.1024H31.9103V53.7384L32.6253 53.6474C32.764 53.63 32.8463 53.5954 32.8723 53.5434C32.8983 53.4827 32.9113 53.305 32.9113 53.0104V48.6034C32.9113 48.3087 32.8983 48.1354 32.8723 48.0834C32.8463 48.0227 32.764 47.9837 32.6253 47.9664L31.9103 47.8754V47.5114H34.3283V48.6554C34.5797 48.2134 34.9003 47.8927 35.2903 47.6934C35.689 47.4854 36.0877 47.3814 36.4863 47.3814C37.1277 47.3814 37.6347 47.585 38.0073 47.9924C38.38 48.3997 38.5663 48.976 38.5663 49.7214V53.0104C38.5663 53.305 38.5793 53.4827 38.6053 53.5434C38.6313 53.5954 38.7137 53.63 38.8523 53.6474L39.5673 53.7384ZM43.3982 49.9814V49.5264H46.8302V49.9814H43.3982ZM51.0736 45.6264V45.2624H54.9866C55.94 45.2624 56.6506 45.4834 57.1186 45.9254C57.5953 46.3587 57.8336 46.9394 57.8336 47.6674V47.9664C57.8336 48.6944 57.5953 49.2794 57.1186 49.7214C56.6506 50.1634 55.94 50.3844 54.9866 50.3844H53.6346V53.0104C53.6346 53.305 53.6476 53.4827 53.6736 53.5434C53.6996 53.5954 53.782 53.63 53.9206 53.6474L54.8956 53.7384V54.1024H51.0736V53.7384L51.7886 53.6474C51.9273 53.63 52.0096 53.5954 52.0356 53.5434C52.0616 53.4827 52.0746 53.305 52.0746 53.0104V46.3544C52.0746 46.0597 52.0616 45.8864 52.0356 45.8344C52.0096 45.7737 51.9273 45.7347 51.7886 45.7174L51.0736 45.6264ZM54.9866 45.7174H53.6346V49.9294H54.9866C55.368 49.9294 55.6583 49.7777 55.8576 49.4744C56.0656 49.171 56.1696 48.755 56.1696 48.2264V47.4074C56.1696 46.8787 56.0656 46.467 55.8576 46.1724C55.6583 45.869 55.368 45.7174 54.9866 45.7174ZM58.5832 47.8754V47.5114H61.0012V48.5774C61.5298 47.78 62.1582 47.3814 62.8862 47.3814C63.1548 47.3814 63.4148 47.468 63.6662 47.6414C63.9175 47.806 64.1255 48.118 64.2902 48.5774L63.1332 49.2014C63.0118 48.846 62.8688 48.6077 62.7042 48.4864C62.5482 48.3564 62.3792 48.2914 62.1972 48.2914C62.0065 48.2914 61.8202 48.352 61.6382 48.4734C61.4562 48.5947 61.2698 48.82 61.0792 49.1494V53.0104C61.0792 53.305 61.0922 53.4827 61.1182 53.5434C61.1442 53.5954 61.2265 53.63 61.3652 53.6474L62.3402 53.7384V54.1024H58.5832V53.7384L59.2982 53.6474C59.4368 53.63 59.5192 53.5954 59.5452 53.5434C59.5712 53.4827 59.5842 53.305 59.5842 53.0104V48.6034C59.5842 48.3087 59.5712 48.1354 59.5452 48.0834C59.5192 48.0227 59.4368 47.9837 59.2982 47.9664L58.5832 47.8754ZM71.1546 53.7774C71.0159 53.9074 70.8469 54.0157 70.6476 54.1024C70.4569 54.189 70.2229 54.2324 69.9456 54.2324C69.5903 54.2324 69.2913 54.1544 69.0486 53.9984C68.8146 53.8424 68.6586 53.6214 68.5806 53.3354C68.2946 53.6474 67.9783 53.877 67.6316 54.0244C67.2936 54.163 66.9469 54.2324 66.5916 54.2324C65.9936 54.2324 65.5473 54.0677 65.2526 53.7384C64.9579 53.4004 64.8106 52.98 64.8106 52.4774C64.8106 51.966 64.9969 51.5544 65.3696 51.2424C65.7423 50.9217 66.4009 50.7614 67.3456 50.7614H68.5286V49.7084C68.5286 48.989 68.4333 48.4994 68.2426 48.2394C68.0606 47.9707 67.8049 47.8364 67.4756 47.8364C67.2589 47.8364 67.0596 47.8927 66.8776 48.0054C66.6956 48.1094 66.5656 48.3087 66.4876 48.6034C66.4183 48.8894 66.4313 49.3054 66.5266 49.8514L65.0966 49.6434C65.0273 49.2447 65.0706 48.8764 65.2266 48.5384C65.3913 48.1917 65.6643 47.9144 66.0456 47.7064C66.4269 47.4897 66.9123 47.3814 67.5016 47.3814C68.1689 47.3814 68.6846 47.4897 69.0486 47.7064C69.4126 47.923 69.6639 48.209 69.8026 48.5644C69.9499 48.9197 70.0236 49.301 70.0236 49.7084V52.7114C70.0236 53.1534 70.0626 53.4307 70.1406 53.5434C70.2186 53.656 70.3053 53.7124 70.4006 53.7124C70.5566 53.7124 70.7299 53.6214 70.9206 53.4394L71.1546 53.7774ZM67.1636 53.5434C67.3889 53.5434 67.6099 53.487 67.8266 53.3744C68.0519 53.253 68.2859 53.032 68.5286 52.7114V51.2164H67.5536C67.1289 51.2164 66.8213 51.316 66.6306 51.5154C66.4399 51.7147 66.3446 52.0267 66.3446 52.4514C66.3446 52.798 66.4139 53.0667 66.5526 53.2574C66.6913 53.448 66.8949 53.5434 67.1636 53.5434ZM76.1477 52.7504C76.035 53.279 75.8184 53.6604 75.4977 53.8944C75.1857 54.1197 74.8044 54.2324 74.3537 54.2324C73.8944 54.2324 73.5174 54.1327 73.2227 53.9334C72.928 53.7254 72.7114 53.4524 72.5727 53.1144C72.434 52.7764 72.3647 52.4167 72.3647 52.0354V48.6034C72.3647 48.3087 72.3517 48.1354 72.3257 48.0834C72.2997 48.0227 72.2174 47.9837 72.0787 47.9664L71.3637 47.8754V47.5114H72.3647V46.0034L73.8597 45.7044V47.5114H75.9397V47.9664H73.8597V52.2954C73.8597 52.85 73.929 53.2357 74.0677 53.4524C74.2064 53.6604 74.384 53.7644 74.6007 53.7644C74.826 53.7644 74.9994 53.6777 75.1207 53.5044C75.2507 53.331 75.333 53.0147 75.3677 52.5554L76.1477 52.7504ZM82.9796 50.6704V50.9304C82.9796 51.927 82.7196 52.7287 82.1996 53.3354C81.6883 53.9334 80.9559 54.2324 80.0026 54.2324C79.0493 54.2324 78.3126 53.9334 77.7926 53.3354C77.2813 52.7287 77.0256 51.927 77.0256 50.9304V50.6704C77.0256 49.6737 77.2813 48.8764 77.7926 48.2784C78.3126 47.6804 79.0493 47.3814 80.0026 47.3814C80.9559 47.3814 81.6883 47.6804 82.1996 48.2784C82.7196 48.8764 82.9796 49.6737 82.9796 50.6704ZM81.3806 50.4104C81.3806 49.483 81.2636 48.8244 81.0296 48.4344C80.7956 48.0357 80.4533 47.8364 80.0026 47.8364C79.5606 47.8364 79.2183 48.0357 78.9756 48.4344C78.7416 48.8244 78.6246 49.483 78.6246 50.4104V51.1904C78.6246 52.109 78.7416 52.772 78.9756 53.1794C79.2183 53.578 79.5606 53.7774 80.0026 53.7774C80.4533 53.7774 80.7956 53.578 81.0296 53.1794C81.2636 52.772 81.3806 52.109 81.3806 51.1904V50.4104ZM87.3366 49.9814V49.5264H90.7686V49.9814H87.3366ZM105.217 53.7384V54.1024H101.655V53.7384L102.37 53.6474C102.509 53.63 102.591 53.5954 102.617 53.5434C102.643 53.4827 102.656 53.305 102.656 53.0104V46.3284L100.277 53.0624H98.8861L96.5331 46.3674V53.0104C96.5331 53.305 96.5461 53.4827 96.5721 53.5434C96.5981 53.5954 96.6805 53.63 96.8191 53.6474L97.5341 53.7384V54.1024H95.0121V53.7384L95.7271 53.6474C95.8658 53.63 95.9481 53.5954 95.9741 53.5434C96.0001 53.4827 96.0131 53.305 96.0131 53.0104V46.3544C96.0131 46.0597 96.0001 45.8864 95.9741 45.8344C95.9481 45.7737 95.8658 45.7347 95.7271 45.7174L95.0121 45.6264V45.2624H97.7551L100.134 52.0224L102.552 45.2624H105.217V45.6264L104.502 45.7174C104.363 45.7347 104.281 45.7737 104.255 45.8344C104.229 45.8864 104.216 46.0597 104.216 46.3544V53.0104C104.216 53.305 104.229 53.4827 104.255 53.5434C104.281 53.5954 104.363 53.63 104.502 53.6474L105.217 53.7384ZM111.939 52.5554C111.783 53.162 111.493 53.5954 111.068 53.8554C110.644 54.1067 110.15 54.2324 109.586 54.2324C108.546 54.2324 107.766 53.9334 107.246 53.3354C106.726 52.7287 106.466 51.927 106.466 50.9304V50.6704C106.466 49.6737 106.709 48.8764 107.194 48.2784C107.688 47.6804 108.399 47.3814 109.326 47.3814C109.846 47.3814 110.306 47.4854 110.704 47.6934C111.112 47.8927 111.428 48.183 111.653 48.5644C111.887 48.9457 112.004 49.4094 112.004 49.9554C112.004 50.0854 111.996 50.224 111.978 50.3714C111.97 50.5187 111.948 50.666 111.913 50.8134H108.065V51.1904C108.065 52.109 108.195 52.772 108.455 53.1794C108.715 53.578 109.136 53.7774 109.716 53.7774C110.089 53.7774 110.405 53.669 110.665 53.4524C110.925 53.227 111.073 52.85 111.107 52.3214L111.939 52.5554ZM109.326 47.8364C108.902 47.8364 108.585 48.0314 108.377 48.4214C108.169 48.8114 108.065 49.457 108.065 50.3584H110.418C110.453 50.185 110.475 50.0247 110.483 49.8774C110.501 49.7214 110.509 49.5784 110.509 49.4484C110.509 48.8937 110.401 48.4864 110.184 48.2264C109.968 47.9664 109.682 47.8364 109.326 47.8364ZM112.957 47.8754V47.5114H115.375V48.5774C115.904 47.78 116.532 47.3814 117.26 47.3814C117.529 47.3814 117.789 47.468 118.04 47.6414C118.292 47.806 118.5 48.118 118.664 48.5774L117.507 49.2014C117.386 48.846 117.243 48.6077 117.078 48.4864C116.922 48.3564 116.753 48.2914 116.571 48.2914C116.381 48.2914 116.194 48.352 116.012 48.4734C115.83 48.5947 115.644 48.82 115.453 49.1494V53.0104C115.453 53.305 115.466 53.4827 115.492 53.5434C115.518 53.5954 115.601 53.63 115.739 53.6474L116.714 53.7384V54.1024H112.957V53.7384L113.672 53.6474C113.811 53.63 113.893 53.5954 113.919 53.5434C113.945 53.4827 113.958 53.305 113.958 53.0104V48.6034C113.958 48.3087 113.945 48.1354 113.919 48.0834C113.893 48.0227 113.811 47.9837 113.672 47.9664L112.957 47.8754ZM125.103 50.6704V50.9304C125.103 51.927 124.843 52.7287 124.323 53.3354C123.811 53.9334 123.079 54.2324 122.126 54.2324C121.172 54.2324 120.436 53.9334 119.916 53.3354C119.404 52.7287 119.149 51.927 119.149 50.9304V50.6704C119.149 49.6737 119.404 48.8764 119.916 48.2784C120.436 47.6804 121.172 47.3814 122.126 47.3814C123.079 47.3814 123.811 47.6804 124.323 48.2784C124.843 48.8764 125.103 49.6737 125.103 50.6704ZM123.504 50.4104C123.504 49.483 123.387 48.8244 123.153 48.4344C122.919 48.0357 122.576 47.8364 122.126 47.8364C121.684 47.8364 121.341 48.0357 121.099 48.4344C120.865 48.8244 120.748 49.483 120.748 50.4104V51.1904C120.748 52.109 120.865 52.772 121.099 53.1794C121.341 53.578 121.684 53.7774 122.126 53.7774C122.576 53.7774 122.919 53.578 123.153 53.1794C123.387 52.772 123.504 52.109 123.504 51.1904V50.4104ZM125.98 44.8464V44.4824H128.476V53.0104C128.476 53.305 128.489 53.4827 128.515 53.5434C128.541 53.5954 128.624 53.63 128.762 53.6474L129.477 53.7384V54.1024H125.98V53.7384L126.695 53.6474C126.834 53.63 126.916 53.5954 126.942 53.5434C126.968 53.4827 126.981 53.305 126.981 53.0104V45.5744C126.981 45.2797 126.968 45.1064 126.942 45.0544C126.916 44.9937 126.834 44.9547 126.695 44.9374L125.98 44.8464ZM136.612 53.7774C136.473 53.9074 136.304 54.0157 136.105 54.1024C135.914 54.189 135.68 54.2324 135.403 54.2324C135.047 54.2324 134.748 54.1544 134.506 53.9984C134.272 53.8424 134.116 53.6214 134.038 53.3354C133.752 53.6474 133.435 53.877 133.089 54.0244C132.751 54.163 132.404 54.2324 132.049 54.2324C131.451 54.2324 131.004 54.0677 130.71 53.7384C130.415 53.4004 130.268 52.98 130.268 52.4774C130.268 51.966 130.454 51.5544 130.827 51.2424C131.199 50.9217 131.858 50.7614 132.803 50.7614H133.986V49.7084C133.986 48.989 133.89 48.4994 133.7 48.2394C133.518 47.9707 133.262 47.8364 132.933 47.8364C132.716 47.8364 132.517 47.8927 132.335 48.0054C132.153 48.1094 132.023 48.3087 131.945 48.6034C131.875 48.8894 131.888 49.3054 131.984 49.8514L130.554 49.6434C130.484 49.2447 130.528 48.8764 130.684 48.5384C130.848 48.1917 131.121 47.9144 131.503 47.7064C131.884 47.4897 132.369 47.3814 132.959 47.3814C133.626 47.3814 134.142 47.4897 134.506 47.7064C134.87 47.923 135.121 48.209 135.26 48.5644C135.407 48.9197 135.481 49.301 135.481 49.7084V52.7114C135.481 53.1534 135.52 53.4307 135.598 53.5434C135.676 53.656 135.762 53.7124 135.858 53.7124C136.014 53.7124 136.187 53.6214 136.378 53.4394L136.612 53.7774ZM132.621 53.5434C132.846 53.5434 133.067 53.487 133.284 53.3744C133.509 53.253 133.743 53.032 133.986 52.7114V51.2164H133.011C132.586 51.2164 132.278 51.316 132.088 51.5154C131.897 51.7147 131.802 52.0267 131.802 52.4514C131.802 52.798 131.871 53.0667 132.01 53.2574C132.148 53.448 132.352 53.5434 132.621 53.5434ZM142.991 53.7514C143.39 53.7514 143.71 53.6257 143.953 53.3744C144.196 53.1144 144.33 52.7764 144.356 52.3604C144.382 51.9444 144.274 51.498 144.031 51.0214L145.188 50.2674L146.774 53.2054C146.904 53.448 146.999 53.591 147.06 53.6344C147.129 53.669 147.233 53.695 147.372 53.7124L148.009 53.7774V54.1024H145.682L144.824 52.4904C144.789 52.967 144.603 53.3787 144.265 53.7254C143.936 54.0634 143.442 54.2324 142.783 54.2324C141.994 54.2324 141.353 54.0547 140.859 53.6994C140.365 53.344 140.118 52.8327 140.118 52.1654C140.118 51.8794 140.183 51.5934 140.313 51.3074C140.443 51.0214 140.677 50.7267 141.015 50.4234C141.362 50.12 141.856 49.795 142.497 49.4484C141.864 49.1797 141.383 48.8504 141.054 48.4604C140.733 48.0704 140.573 47.6544 140.573 47.2124C140.573 46.857 140.673 46.5234 140.872 46.2114C141.071 45.8907 141.353 45.6307 141.717 45.4314C142.081 45.232 142.514 45.1324 143.017 45.1324C143.528 45.1324 143.966 45.2277 144.33 45.4184C144.703 45.6004 144.984 45.8474 145.175 46.1594C145.374 46.4627 145.474 46.8007 145.474 47.1734C145.474 47.702 145.283 48.1484 144.902 48.5124C144.521 48.8764 144.035 49.2187 143.446 49.5394L142.991 49.7864C142.506 50.055 142.163 50.3714 141.964 50.7354C141.773 51.0994 141.678 51.5327 141.678 52.0354C141.678 52.616 141.795 53.0494 142.029 53.3354C142.272 53.6127 142.592 53.7514 142.991 53.7514ZM142.133 47.1214C142.133 47.468 142.185 47.8234 142.289 48.1874C142.393 48.5514 142.605 48.8937 142.926 49.2144L143.03 49.1624C143.359 48.989 143.589 48.7334 143.719 48.3954C143.849 48.0574 143.914 47.6587 143.914 47.1994C143.914 46.6274 143.832 46.2157 143.667 45.9644C143.511 45.713 143.299 45.5874 143.03 45.5874C142.77 45.5874 142.553 45.7 142.38 45.9254C142.215 46.1507 142.133 46.5494 142.133 47.1214ZM153.035 53.7384V54.1024H150.526V53.7384L151.241 53.6474C151.337 53.63 151.406 53.6127 151.449 53.5954C151.493 53.5694 151.532 53.513 151.566 53.4264C151.601 53.3397 151.649 53.201 151.709 53.0104L154.192 45.2624H155.31L157.806 53.0104C157.867 53.201 157.915 53.3397 157.949 53.4264C157.984 53.513 158.023 53.5694 158.066 53.5954C158.118 53.6127 158.188 53.63 158.274 53.6474L158.989 53.7384V54.1024H155.401V53.7384L156.116 53.6474C156.255 53.63 156.329 53.5954 156.337 53.5434C156.355 53.4827 156.316 53.305 156.22 53.0104L155.726 51.3984H152.723L152.216 53.0104C152.13 53.305 152.091 53.4827 152.099 53.5434C152.108 53.5954 152.182 53.63 152.32 53.6474L153.035 53.7384ZM152.879 50.9434H155.583L154.244 46.6274L152.879 50.9434ZM162.17 51.6454L161.273 51.4374C160.693 51.2987 160.259 51.0517 159.973 50.6964C159.696 50.3324 159.557 49.9034 159.557 49.4094C159.557 49.0454 159.635 48.7117 159.791 48.4084C159.956 48.0964 160.212 47.8494 160.558 47.6674C160.905 47.4767 161.356 47.3814 161.91 47.3814C162.508 47.3814 162.994 47.4767 163.366 47.6674C163.739 47.858 164.003 48.1094 164.159 48.4214C164.315 48.7334 164.363 49.067 164.302 49.4224L162.872 49.6824C162.994 49.093 162.959 48.638 162.768 48.3174C162.586 47.9967 162.279 47.8364 161.845 47.8364C161.542 47.8364 161.291 47.9274 161.091 48.1094C160.892 48.2827 160.792 48.534 160.792 48.8634C160.792 49.1667 160.879 49.4354 161.052 49.6694C161.226 49.8947 161.481 50.0464 161.819 50.1244L162.716 50.3324C163.358 50.4797 163.821 50.7137 164.107 51.0344C164.393 51.3464 164.536 51.7364 164.536 52.2044C164.536 52.785 164.32 53.2704 163.886 53.6604C163.462 54.0417 162.825 54.2324 161.975 54.2324C161.681 54.2324 161.356 54.189 161 54.1024C160.654 54.007 160.333 53.838 160.038 53.5954C159.752 53.3527 159.544 53.006 159.414 52.5554L160.259 52.2174C160.32 52.7894 160.515 53.1924 160.844 53.4264C161.182 53.6604 161.559 53.7774 161.975 53.7774C162.365 53.7774 162.682 53.6907 162.924 53.5174C163.176 53.3354 163.301 53.0754 163.301 52.7374C163.301 52.5034 163.219 52.291 163.054 52.1004C162.898 51.901 162.604 51.7494 162.17 51.6454ZM171.783 50.6704V50.9304C171.783 51.927 171.523 52.7287 171.003 53.3354C170.492 53.9334 169.76 54.2324 168.806 54.2324C167.853 54.2324 167.116 53.9334 166.596 53.3354C166.085 52.7287 165.829 51.927 165.829 50.9304V50.6704C165.829 49.6737 166.085 48.8764 166.596 48.2784C167.116 47.6804 167.853 47.3814 168.806 47.3814C169.76 47.3814 170.492 47.6804 171.003 48.2784C171.523 48.8764 171.783 49.6737 171.783 50.6704ZM170.184 50.4104C170.184 49.483 170.067 48.8244 169.833 48.4344C169.599 48.0357 169.257 47.8364 168.806 47.8364C168.364 47.8364 168.022 48.0357 167.779 48.4344C167.545 48.8244 167.428 49.483 167.428 50.4104V51.1904C167.428 52.109 167.545 52.772 167.779 53.1794C168.022 53.578 168.364 53.7774 168.806 53.7774C169.257 53.7774 169.599 53.578 169.833 53.1794C170.067 52.772 170.184 52.109 170.184 51.1904V50.4104ZM175.976 47.8364C175.56 47.8364 175.248 48.0357 175.04 48.4344C174.841 48.8244 174.741 49.483 174.741 50.4104V51.1904C174.741 52.109 174.858 52.772 175.092 53.1794C175.326 53.578 175.707 53.7774 176.236 53.7774C176.626 53.7774 176.942 53.669 177.185 53.4524C177.436 53.227 177.579 52.85 177.614 52.3214L178.446 52.5554C178.29 53.162 178.004 53.5954 177.588 53.8554C177.181 54.1067 176.7 54.2324 176.145 54.2324C175.148 54.2324 174.399 53.9334 173.896 53.3354C173.393 52.7287 173.142 51.927 173.142 50.9304V50.6704C173.142 49.6737 173.385 48.8764 173.87 48.2784C174.355 47.6804 175.057 47.3814 175.976 47.3814C176.583 47.3814 177.077 47.5027 177.458 47.7454C177.848 47.9794 178.121 48.2914 178.277 48.6814C178.442 49.0627 178.485 49.4744 178.407 49.9164L176.977 50.1244C177.072 49.3964 177.033 48.833 176.86 48.4344C176.687 48.0357 176.392 47.8364 175.976 47.8364ZM181.032 46.3934C180.764 46.3934 180.547 46.311 180.382 46.1464C180.218 45.973 180.135 45.752 180.135 45.4834C180.135 45.2147 180.218 44.998 180.382 44.8334C180.547 44.6687 180.764 44.5864 181.032 44.5864C181.292 44.5864 181.509 44.6687 181.682 44.8334C181.856 44.998 181.942 45.2147 181.942 45.4834C181.942 45.752 181.856 45.973 181.682 46.1464C181.509 46.311 181.292 46.3934 181.032 46.3934ZM179.29 47.8754V47.5114H181.786V53.0104C181.786 53.305 181.799 53.4827 181.825 53.5434C181.851 53.5954 181.934 53.63 182.072 53.6474L182.787 53.7384V54.1024H179.29V53.7384L180.005 53.6474C180.144 53.63 180.226 53.5954 180.252 53.5434C180.278 53.4827 180.291 53.305 180.291 53.0104V48.6034C180.291 48.3087 180.278 48.1354 180.252 48.0834C180.226 48.0227 180.144 47.9837 180.005 47.9664L179.29 47.8754ZM189.919 53.7774C189.781 53.9074 189.612 54.0157 189.412 54.1024C189.222 54.189 188.988 54.2324 188.71 54.2324C188.355 54.2324 188.056 54.1544 187.813 53.9984C187.579 53.8424 187.423 53.6214 187.345 53.3354C187.059 53.6474 186.743 53.877 186.396 54.0244C186.058 54.163 185.712 54.2324 185.356 54.2324C184.758 54.2324 184.312 54.0677 184.017 53.7384C183.723 53.4004 183.575 52.98 183.575 52.4774C183.575 51.966 183.762 51.5544 184.134 51.2424C184.507 50.9217 185.166 50.7614 186.11 50.7614H187.293V49.7084C187.293 48.989 187.198 48.4994 187.007 48.2394C186.825 47.9707 186.57 47.8364 186.24 47.8364C186.024 47.8364 185.824 47.8927 185.642 48.0054C185.46 48.1094 185.33 48.3087 185.252 48.6034C185.183 48.8894 185.196 49.3054 185.291 49.8514L183.861 49.6434C183.792 49.2447 183.835 48.8764 183.991 48.5384C184.156 48.1917 184.429 47.9144 184.81 47.7064C185.192 47.4897 185.677 47.3814 186.266 47.3814C186.934 47.3814 187.449 47.4897 187.813 47.7064C188.177 47.923 188.429 48.209 188.567 48.5644C188.715 48.9197 188.788 49.301 188.788 49.7084V52.7114C188.788 53.1534 188.827 53.4307 188.905 53.5434C188.983 53.656 189.07 53.7124 189.165 53.7124C189.321 53.7124 189.495 53.6214 189.685 53.4394L189.919 53.7774ZM185.928 53.5434C186.154 53.5434 186.375 53.487 186.591 53.3744C186.817 53.253 187.051 53.032 187.293 52.7114V51.2164H186.318C185.894 51.2164 185.586 51.316 185.395 51.5154C185.205 51.7147 185.109 52.0267 185.109 52.4514C185.109 52.798 185.179 53.0667 185.317 53.2574C185.456 53.448 185.66 53.5434 185.928 53.5434ZM197.382 53.7384V54.1024H194.964V53.0234C194.722 53.422 194.449 53.7254 194.145 53.9334C193.851 54.1327 193.5 54.2324 193.092 54.2324C192.364 54.2324 191.784 53.9464 191.35 53.3744C190.926 52.7937 190.713 51.9834 190.713 50.9434V50.6834C190.713 49.678 190.96 48.8764 191.454 48.2784C191.957 47.6804 192.642 47.3814 193.508 47.3814C194.028 47.3814 194.488 47.5114 194.886 47.7714V45.5744C194.886 45.2797 194.873 45.1064 194.847 45.0544C194.821 44.9937 194.739 44.9547 194.6 44.9374L193.885 44.8464V44.4824H196.381V53.0104C196.381 53.305 196.394 53.4827 196.42 53.5434C196.446 53.5954 196.529 53.63 196.667 53.6474L197.382 53.7384ZM192.312 51.3334C192.312 52.1394 192.412 52.7287 192.611 53.1014C192.811 53.474 193.084 53.6604 193.43 53.6604C193.647 53.6604 193.872 53.5737 194.106 53.4004C194.349 53.2184 194.609 52.8544 194.886 52.3084V48.3824C194.557 48.053 194.154 47.8884 193.677 47.8884C193.201 47.8884 192.854 48.105 192.637 48.5384C192.421 48.963 192.312 49.548 192.312 50.2934V51.3334ZM204.22 50.6704V50.9304C204.22 51.927 203.96 52.7287 203.44 53.3354C202.929 53.9334 202.196 54.2324 201.243 54.2324C200.29 54.2324 199.553 53.9334 199.033 53.3354C198.522 52.7287 198.266 51.927 198.266 50.9304V50.6704C198.266 49.6737 198.522 48.8764 199.033 48.2784C199.553 47.6804 200.29 47.3814 201.243 47.3814C202.196 47.3814 202.929 47.6804 203.44 48.2784C203.96 48.8764 204.22 49.6737 204.22 50.6704ZM202.621 50.4104C202.621 49.483 202.504 48.8244 202.27 48.4344C202.036 48.0357 201.694 47.8364 201.243 47.8364C200.801 47.8364 200.459 48.0357 200.216 48.4344C199.982 48.8244 199.865 49.483 199.865 50.4104V51.1904C199.865 52.109 199.982 52.772 200.216 53.1794C200.459 53.578 200.801 53.7774 201.243 53.7774C201.694 53.7774 202.036 53.578 202.27 53.1794C202.504 52.772 202.621 52.109 202.621 51.1904V50.4104ZM208.153 51.6454L207.256 51.4374C206.675 51.2987 206.242 51.0517 205.956 50.6964C205.678 50.3324 205.54 49.9034 205.54 49.4094C205.54 49.0454 205.618 48.7117 205.774 48.4084C205.938 48.0964 206.194 47.8494 206.541 47.6674C206.887 47.4767 207.338 47.3814 207.893 47.3814C208.491 47.3814 208.976 47.4767 209.349 47.6674C209.721 47.858 209.986 48.1094 210.142 48.4214C210.298 48.7334 210.345 49.067 210.285 49.4224L208.855 49.6824C208.976 49.093 208.941 48.638 208.751 48.3174C208.569 47.9967 208.261 47.8364 207.828 47.8364C207.524 47.8364 207.273 47.9274 207.074 48.1094C206.874 48.2827 206.775 48.534 206.775 48.8634C206.775 49.1667 206.861 49.4354 207.035 49.6694C207.208 49.8947 207.464 50.0464 207.802 50.1244L208.699 50.3324C209.34 50.4797 209.804 50.7137 210.09 51.0344C210.376 51.3464 210.519 51.7364 210.519 52.2044C210.519 52.785 210.302 53.2704 209.869 53.6604C209.444 54.0417 208.807 54.2324 207.958 54.2324C207.663 54.2324 207.338 54.189 206.983 54.1024C206.636 54.007 206.315 53.838 206.021 53.5954C205.735 53.3527 205.527 53.006 205.397 52.5554L206.242 52.2174C206.302 52.7894 206.497 53.1924 206.827 53.4264C207.165 53.6604 207.542 53.7774 207.958 53.7774C208.348 53.7774 208.664 53.6907 208.907 53.5174C209.158 53.3354 209.284 53.0754 209.284 52.7374C209.284 52.5034 209.201 52.291 209.037 52.1004C208.881 51.901 208.586 51.7494 208.153 51.6454Z" fill="white"/>
<path d="M77.175 67.1923V67.5563H74.666V67.1923L75.381 67.1013C75.4764 67.0839 75.5457 67.0666 75.589 67.0493C75.6324 67.0233 75.6714 66.9669 75.706 66.8803C75.7407 66.7936 75.7884 66.6549 75.849 66.4643L78.332 58.7163H79.45L81.946 66.4643C82.0067 66.6549 82.0544 66.7936 82.089 66.8803C82.1237 66.9669 82.1627 67.0233 82.206 67.0493C82.258 67.0666 82.3274 67.0839 82.414 67.1013L83.129 67.1923V67.5563H79.541V67.1923L80.256 67.1013C80.3947 67.0839 80.4684 67.0493 80.477 66.9973C80.4944 66.9366 80.4554 66.7589 80.36 66.4643L79.866 64.8523H76.863L76.356 66.4643C76.2694 66.7589 76.2304 66.9366 76.239 66.9973C76.2477 67.0493 76.3214 67.0839 76.46 67.1013L77.175 67.1923ZM77.019 64.3973H79.723L78.384 60.0813L77.019 64.3973ZM83.6058 59.0803V58.7163H87.1938C87.8871 58.7163 88.4374 58.8116 88.8448 59.0023C89.2521 59.1929 89.5424 59.4443 89.7158 59.7563C89.8978 60.0683 89.9888 60.4149 89.9888 60.7963V61.1473C89.9888 61.5979 89.8458 61.9879 89.5598 62.3173C89.2824 62.6379 88.8751 62.8676 88.3378 63.0063C88.9964 63.1189 89.4991 63.3529 89.8458 63.7083C90.2011 64.0636 90.3788 64.5099 90.3788 65.0473V65.4113C90.3788 65.8013 90.2878 66.1609 90.1058 66.4903C89.9238 66.8109 89.6204 67.0709 89.1958 67.2703C88.7798 67.4609 88.2208 67.5563 87.5188 67.5563H83.6058V67.1923L84.3208 67.1013C84.4594 67.0839 84.5418 67.0493 84.5678 66.9973C84.5938 66.9366 84.6068 66.7589 84.6068 66.4643V59.8083C84.6068 59.5136 84.5938 59.3403 84.5678 59.2883C84.5418 59.2276 84.4594 59.1886 84.3208 59.1713L83.6058 59.0803ZM87.1938 59.1713H86.1668V62.8113H87.1938C87.5664 62.8113 87.8481 62.6856 88.0388 62.4343C88.2294 62.1743 88.3248 61.7669 88.3248 61.2123V60.7963C88.3248 60.2329 88.2294 59.8213 88.0388 59.5613C87.8481 59.3013 87.5664 59.1713 87.1938 59.1713ZM87.5188 63.2663H86.1668V67.1013H87.5188C87.9088 67.1013 88.2034 66.9713 88.4028 66.7113C88.6108 66.4426 88.7148 66.0093 88.7148 65.4113V64.9823C88.7148 63.8383 88.3161 63.2663 87.5188 63.2663ZM98.9615 62.7203V63.5393C98.9615 64.8739 98.6625 65.9009 98.0645 66.6203C97.4752 67.3309 96.5998 67.6863 95.4385 67.6863C94.2772 67.6863 93.3975 67.3309 92.7995 66.6203C92.2102 65.9009 91.9155 64.8739 91.9155 63.5393V62.7203C91.9155 61.3856 92.2102 60.3629 92.7995 59.6523C93.3975 58.9416 94.2772 58.5863 95.4385 58.5863C96.5998 58.5863 97.4752 58.9416 98.0645 59.6523C98.6625 60.3629 98.9615 61.3856 98.9615 62.7203ZM97.2975 62.0703C97.2975 61.3076 97.2325 60.7096 97.1025 60.2763C96.9725 59.8343 96.7688 59.5179 96.4915 59.3273C96.2228 59.1366 95.8718 59.0413 95.4385 59.0413C95.0138 59.0413 94.6628 59.1366 94.3855 59.3273C94.1082 59.5179 93.9045 59.8343 93.7745 60.2763C93.6445 60.7096 93.5795 61.3076 93.5795 62.0703V64.1893C93.5795 64.9433 93.6445 65.5413 93.7745 65.9833C93.9045 66.4253 94.1082 66.7459 94.3855 66.9453C94.6628 67.1359 95.0138 67.2313 95.4385 67.2313C95.8718 67.2313 96.2228 67.1359 96.4915 66.9453C96.7688 66.7459 96.9725 66.4253 97.1025 65.9833C97.2325 65.5413 97.2975 64.9433 97.2975 64.1893V62.0703ZM104.51 63.9163V63.5523H108.202V63.9163L107.487 64.0073C107.349 64.0246 107.266 64.0636 107.24 64.1243C107.214 64.1763 107.201 64.3496 107.201 64.6443V67.5563H106.85C106.616 67.3136 106.356 67.1099 106.07 66.9453C105.836 67.1533 105.559 67.3309 105.238 67.4783C104.918 67.6169 104.528 67.6863 104.068 67.6863C103.358 67.6863 102.747 67.5086 102.235 67.1533C101.733 66.7893 101.347 66.2909 101.078 65.6583C100.81 65.0169 100.675 64.2889 100.675 63.4743V62.6553C100.675 61.8666 100.81 61.1689 101.078 60.5623C101.347 59.9469 101.741 59.4659 102.261 59.1193C102.781 58.7639 103.418 58.5863 104.172 58.5863C104.883 58.5863 105.468 58.7163 105.927 58.9763C106.395 59.2276 106.738 59.5656 106.954 59.9903C107.171 60.4063 107.253 60.8613 107.201 61.3553L105.68 61.7323C105.776 60.8656 105.68 60.2026 105.394 59.7433C105.108 59.2753 104.684 59.0413 104.12 59.0413C102.933 59.0413 102.339 60.0943 102.339 62.2003V64.0593C102.339 66.1739 102.968 67.2313 104.224 67.2313C104.502 67.2313 104.779 67.1749 105.056 67.0623C105.342 66.9496 105.581 66.7849 105.771 66.5683V64.6443C105.771 64.3496 105.758 64.1719 105.732 64.1113C105.706 64.0506 105.624 64.0159 105.485 64.0073L104.51 63.9163ZM110.868 67.1923V67.5563H108.359V67.1923L109.074 67.1013C109.17 67.0839 109.239 67.0666 109.282 67.0493C109.326 67.0233 109.365 66.9669 109.399 66.8803C109.434 66.7936 109.482 66.6549 109.542 66.4643L112.025 58.7163H113.143L115.639 66.4643C115.7 66.6549 115.748 66.7936 115.782 66.8803C115.817 66.9669 115.856 67.0233 115.899 67.0493C115.951 67.0666 116.021 67.0839 116.107 67.1013L116.822 67.1923V67.5563H113.234V67.1923L113.949 67.1013C114.088 67.0839 114.162 67.0493 114.17 66.9973C114.188 66.9366 114.149 66.7589 114.053 66.4643L113.559 64.8523H110.556L110.049 66.4643C109.963 66.7589 109.924 66.9366 109.932 66.9973C109.941 67.0493 110.015 67.0839 110.153 67.1013L110.868 67.1923ZM110.712 64.3973H113.416L112.077 60.0813L110.712 64.3973ZM117.299 59.0803V58.7163H121.134C122.243 58.7163 123.093 59.0413 123.682 59.6913C124.28 60.3413 124.579 61.3509 124.579 62.7203V63.5393C124.579 64.9086 124.28 65.9226 123.682 66.5813C123.093 67.2313 122.243 67.5563 121.134 67.5563H117.299V67.1923L118.014 67.1013C118.153 67.0839 118.235 67.0493 118.261 66.9973C118.287 66.9366 118.3 66.7589 118.3 66.4643V59.8083C118.3 59.5136 118.287 59.3403 118.261 59.2883C118.235 59.2276 118.153 59.1886 118.014 59.1713L117.299 59.0803ZM121.069 59.1713H119.86V67.1013H121.069C121.511 67.1013 121.866 67.0276 122.135 66.8803C122.404 66.7243 122.599 66.4383 122.72 66.0223C122.85 65.5976 122.915 64.9866 122.915 64.1893V62.0703C122.915 61.2729 122.85 60.6663 122.72 60.2503C122.599 59.8343 122.404 59.5526 122.135 59.4053C121.866 59.2493 121.511 59.1713 121.069 59.1713ZM133.34 62.7203V63.5393C133.34 64.8739 133.041 65.9009 132.443 66.6203C131.854 67.3309 130.979 67.6863 129.817 67.6863C128.656 67.6863 127.776 67.3309 127.178 66.6203C126.589 65.9009 126.294 64.8739 126.294 63.5393V62.7203C126.294 61.3856 126.589 60.3629 127.178 59.6523C127.776 58.9416 128.656 58.5863 129.817 58.5863C130.979 58.5863 131.854 58.9416 132.443 59.6523C133.041 60.3629 133.34 61.3856 133.34 62.7203ZM131.676 62.0703C131.676 61.3076 131.611 60.7096 131.481 60.2763C131.351 59.8343 131.148 59.5179 130.87 59.3273C130.602 59.1366 130.251 59.0413 129.817 59.0413C129.393 59.0413 129.042 59.1366 128.764 59.3273C128.487 59.5179 128.283 59.8343 128.153 60.2763C128.023 60.7096 127.958 61.3076 127.958 62.0703V64.1893C127.958 64.9433 128.023 65.5413 128.153 65.9833C128.283 66.4253 128.487 66.7459 128.764 66.9453C129.042 67.1359 129.393 67.2313 129.817 67.2313C130.251 67.2313 130.602 67.1359 130.87 66.9453C131.148 66.7459 131.351 66.4253 131.481 65.9833C131.611 65.5413 131.676 64.9433 131.676 64.1893V62.0703ZM137.771 67.2313C138.291 67.2313 138.72 67.1099 139.058 66.8673C139.405 66.6159 139.578 66.2259 139.578 65.6973C139.578 65.3073 139.461 64.9823 139.227 64.7223C139.002 64.4623 138.595 64.2456 138.005 64.0723L136.796 63.7083C136.19 63.5263 135.722 63.2143 135.392 62.7723C135.072 62.3216 134.911 61.7626 134.911 61.0953C134.911 60.6533 135.011 60.2416 135.21 59.8603C135.418 59.4789 135.73 59.1713 136.146 58.9373C136.571 58.7033 137.104 58.5863 137.745 58.5863C138.447 58.5863 139.015 58.7163 139.448 58.9763C139.882 59.2276 140.185 59.5569 140.358 59.9643C140.532 60.3716 140.575 60.8093 140.488 61.2773L138.993 61.5503C139.132 60.7443 139.071 60.1246 138.811 59.6913C138.56 59.2579 138.148 59.0413 137.576 59.0413C137.134 59.0413 136.779 59.1713 136.51 59.4313C136.25 59.6913 136.12 60.0639 136.12 60.5493C136.12 60.9479 136.233 61.2989 136.458 61.6023C136.692 61.9056 137.074 62.1396 137.602 62.3043L138.811 62.6683C139.47 62.8589 139.964 63.1493 140.293 63.5393C140.623 63.9206 140.787 64.4536 140.787 65.1383C140.787 65.6236 140.675 66.0613 140.449 66.4513C140.233 66.8326 139.899 67.1359 139.448 67.3613C139.006 67.5779 138.452 67.6863 137.784 67.6863C137.299 67.6863 136.84 67.6169 136.406 67.4783C135.973 67.3309 135.609 67.0926 135.314 66.7633C135.028 66.4339 134.846 65.9876 134.768 65.4243L135.639 65.1123C135.683 65.6669 135.804 66.1003 136.003 66.4123C136.211 66.7156 136.467 66.9279 136.77 67.0493C137.082 67.1706 137.416 67.2313 137.771 67.2313Z" fill="white"/>
</svg>
