<svg width="431" height="52" viewBox="0 0 431 52" fill="none" xmlns="http://www.w3.org/2000/svg">
<path d="M14.2379 28.0184C18.7073 24.0469 17.8528 18.4207 16.867 16.104C15.0266 11.8677 17.6337 10.1467 19.1673 9.81576L32.6411 5.5133L53.3448 0.879894C53.3448 0.879894 41.8427 1.54181 39.2137 1.87277C35.9528 2.28327 17.8528 4.85139 16.867 5.5133C15.8811 6.17522 14.7337 7.5211 14.2379 8.6049C13.5807 10.0417 13.4738 12.2454 13.5807 14.1182C13.6999 16.2079 14.2379 19.4135 14.8952 21.7302C15.421 23.5836 14.6761 26.6946 14.2379 28.0184Z" fill="#FFFAF7"/>
<path d="M50.7157 23.0541L58.2742 0.217978C57.9456 -0.443919 50.3871 5.84424 48.4153 8.82286C46.8379 11.2058 37.8992 22.8334 33.627 28.3494H29.6835V30.3351H32.3125C30.4503 32.8725 24.8855 38.7415 17.5242 41.9186C8.32259 45.8901 4.70767 38.94 3.39316 37.6162C2.34155 36.5571 0.983206 31.8796 0.435487 29.6732C0.106858 30.5558 -0.353222 33.3137 0.435487 37.2852C1.42137 42.2496 7.00807 47.214 10.9516 47.8759C14.8952 48.5378 19.8246 46.5521 25.0827 41.9186C29.2891 38.2119 33.8461 32.6518 35.5988 30.3351H39.9274L41.0786 28.4624H36.8064C38.7782 26.1457 43.223 20.605 46.1149 16.104C49.0069 11.6029 50.3871 11.1396 50.7157 11.4705C50.4966 13.1253 49.5984 17.7587 47.7581 23.0541C45.4577 29.6732 40.5282 37.9472 43.1573 43.5734C45.2605 48.0745 49.7298 46.5521 51.7016 45.2282L58.2742 39.271L51.7016 42.5806C50.0585 42.9115 46.7722 42.4482 46.7722 37.9472C46.7722 33.4461 48.963 28.57 50.0585 26.6946C52.6875 29.3423 66.4899 27.6875 71.748 25.3708C75.9544 23.5174 80.2924 19.7445 82.2641 17.7587C83.6882 23.0541 84.7054 26.0327 86.5363 30.3351C87.5222 32.6518 87.8508 39.9329 87.8508 40.5948C87.8508 41.2567 87.8508 43.5734 87.1936 44.2354C86.5363 44.8973 87.8508 45.8901 88.8367 45.5592C89.6254 45.2944 91.1371 42.8012 91.7944 41.5877C97.9288 34.5273 110.46 20.2078 111.512 19.4135C112.827 18.4206 112.169 18.7516 112.827 19.7445C113.352 20.5388 112.169 24.4882 111.512 26.0327C109.978 29.5629 106.911 37.6162 106.911 41.5877C106.911 46.5521 111.512 46.883 112.827 46.2211C113.878 45.6916 117.427 43.7941 119.071 42.9115L124 37.9472C123.781 37.9472 122.817 38.2781 120.714 39.6019C118.085 41.2567 113.155 42.5806 112.169 41.5877C111.183 40.5948 110.526 38.6091 111.512 33.3137C112.301 29.0775 114.47 24.0469 115.456 22.0612C117.756 17.5381 122.488 7.89618 123.014 5.5133C123.671 2.5347 122.685 1.87277 121.7 1.87277C120.911 1.87277 118.523 5.62362 117.427 7.49905L105.597 22.0612L91.1371 37.9472C91.2466 37.7265 90.9399 34.9023 88.8367 26.6946C86.2077 16.4349 84.2359 15.1111 84.5645 14.4491C84.8931 13.7872 85.4435 10.1467 85.1149 7.49905C84.7863 4.85139 78.9778 1.21085 74.0484 0.217978C70.1048 -0.576321 62.7655 0.990213 59.5887 1.87277C61.5605 1.87277 66.8843 2.07134 72.4052 2.86564C77.9262 3.65994 79.3064 7.83001 79.3064 9.81576C79.3064 13.5666 76.8746 21.7302 67.1472 24.3779C57.4198 27.0256 52.1398 24.5985 50.7157 23.0541Z" fill="#FFFAF7"/>
<path d="M145.542 21.684H146.046V26.166H145.542L145.146 24.708C145.11 24.564 145.068 24.462 145.02 24.402C144.984 24.33 144.906 24.288 144.786 24.276C144.666 24.252 144.462 24.24 144.174 24.24H142.32V28.488C142.32 28.896 142.338 29.142 142.374 29.226C142.41 29.298 142.524 29.346 142.716 29.37L144.066 29.496V30H138.774V29.496L139.764 29.37C139.956 29.346 140.07 29.298 140.106 29.226C140.142 29.142 140.16 28.896 140.16 28.488V19.272C140.16 18.864 140.142 18.624 140.106 18.552C140.07 18.468 139.956 18.414 139.764 18.39L138.774 18.264V17.76H147.306V20.856H146.802L146.226 18.858C146.19 18.714 146.148 18.612 146.1 18.552C146.064 18.48 145.986 18.438 145.866 18.426C145.746 18.402 145.542 18.39 145.254 18.39H142.32V23.61H144.174C144.462 23.61 144.666 23.604 144.786 23.592C144.906 23.568 144.984 23.526 145.02 23.466C145.068 23.394 145.11 23.286 145.146 23.142L145.542 21.684ZM157.104 29.55C156.912 29.73 156.678 29.88 156.402 30C156.138 30.12 155.814 30.18 155.43 30.18C154.938 30.18 154.524 30.072 154.188 29.856C153.864 29.64 153.648 29.334 153.54 28.938C153.144 29.37 152.706 29.688 152.226 29.892C151.758 30.084 151.278 30.18 150.786 30.18C149.958 30.18 149.34 29.952 148.932 29.496C148.524 29.028 148.32 28.446 148.32 27.75C148.32 27.042 148.578 26.472 149.094 26.04C149.61 25.596 150.522 25.374 151.83 25.374H153.468V23.916C153.468 22.92 153.336 22.242 153.072 21.882C152.82 21.51 152.466 21.324 152.01 21.324C151.71 21.324 151.434 21.402 151.182 21.558C150.93 21.702 150.75 21.978 150.642 22.386C150.546 22.782 150.564 23.358 150.696 24.114L148.716 23.826C148.62 23.274 148.68 22.764 148.896 22.296C149.124 21.816 149.502 21.432 150.03 21.144C150.558 20.844 151.23 20.694 152.046 20.694C152.97 20.694 153.684 20.844 154.188 21.144C154.692 21.444 155.04 21.84 155.232 22.332C155.436 22.824 155.538 23.352 155.538 23.916V28.074C155.538 28.686 155.592 29.07 155.7 29.226C155.808 29.382 155.928 29.46 156.06 29.46C156.276 29.46 156.516 29.334 156.78 29.082L157.104 29.55ZM151.578 29.226C151.89 29.226 152.196 29.148 152.496 28.992C152.808 28.824 153.132 28.518 153.468 28.074V26.004H152.118C151.53 26.004 151.104 26.142 150.84 26.418C150.576 26.694 150.444 27.126 150.444 27.714C150.444 28.194 150.54 28.566 150.732 28.83C150.924 29.094 151.206 29.226 151.578 29.226ZM157.483 17.184V16.68H160.939V28.488C160.939 28.896 160.957 29.142 160.993 29.226C161.029 29.298 161.143 29.346 161.335 29.37L162.325 29.496V30H157.483V29.496L158.473 29.37C158.665 29.346 158.779 29.298 158.815 29.226C158.851 29.142 158.869 28.896 158.869 28.488V18.192C158.869 17.784 158.851 17.544 158.815 17.472C158.779 17.388 158.665 17.334 158.473 17.31L157.483 17.184ZM167.487 21.324C166.911 21.324 166.479 21.6 166.191 22.152C165.915 22.692 165.777 23.604 165.777 24.888V25.968C165.777 27.24 165.939 28.158 166.263 28.722C166.587 29.274 167.115 29.55 167.847 29.55C168.387 29.55 168.825 29.4 169.161 29.1C169.509 28.788 169.707 28.266 169.755 27.534L170.907 27.858C170.691 28.698 170.295 29.298 169.719 29.658C169.155 30.006 168.489 30.18 167.721 30.18C166.341 30.18 165.303 29.766 164.607 28.938C163.911 28.098 163.563 26.988 163.563 25.608V25.248C163.563 23.868 163.899 22.764 164.571 21.936C165.243 21.108 166.215 20.694 167.487 20.694C168.327 20.694 169.011 20.862 169.539 21.198C170.079 21.522 170.457 21.954 170.673 22.494C170.901 23.022 170.961 23.592 170.853 24.204L168.873 24.492C169.005 23.484 168.951 22.704 168.711 22.152C168.471 21.6 168.063 21.324 167.487 21.324ZM180.842 25.248V25.608C180.842 26.988 180.482 28.098 179.762 28.938C179.054 29.766 178.04 30.18 176.72 30.18C175.4 30.18 174.38 29.766 173.66 28.938C172.952 28.098 172.598 26.988 172.598 25.608V25.248C172.598 23.868 172.952 22.764 173.66 21.936C174.38 21.108 175.4 20.694 176.72 20.694C178.04 20.694 179.054 21.108 179.762 21.936C180.482 22.764 180.842 23.868 180.842 25.248ZM178.628 24.888C178.628 23.604 178.466 22.692 178.142 22.152C177.818 21.6 177.344 21.324 176.72 21.324C176.108 21.324 175.634 21.6 175.298 22.152C174.974 22.692 174.812 23.604 174.812 24.888V25.968C174.812 27.24 174.974 28.158 175.298 28.722C175.634 29.274 176.108 29.55 176.72 29.55C177.344 29.55 177.818 29.274 178.142 28.722C178.466 28.158 178.628 27.24 178.628 25.968V24.888ZM176.702 19.578L176.27 19.2C176.51 18.816 176.726 18.438 176.918 18.066C177.11 17.682 177.266 17.22 177.386 16.68H179.654C179.246 17.232 178.82 17.73 178.376 18.174C177.932 18.618 177.374 19.086 176.702 19.578ZM192.786 29.496V30H187.944V29.496L188.934 29.37C189.126 29.346 189.24 29.298 189.276 29.226C189.312 29.142 189.33 28.896 189.33 28.488V23.952C189.33 23.124 189.204 22.524 188.952 22.152C188.712 21.768 188.352 21.576 187.872 21.576C187.668 21.576 187.428 21.63 187.152 21.738C186.888 21.834 186.618 22.014 186.342 22.278C186.078 22.542 185.844 22.932 185.64 23.448V28.488C185.64 28.896 185.658 29.142 185.694 29.226C185.73 29.298 185.844 29.346 186.036 29.37L187.026 29.496V30H182.184V29.496L183.174 29.37C183.366 29.346 183.48 29.298 183.516 29.226C183.552 29.142 183.57 28.896 183.57 28.488V22.386C183.57 21.978 183.552 21.738 183.516 21.666C183.48 21.582 183.366 21.528 183.174 21.504L182.184 21.378V20.874H185.532V22.458C185.88 21.846 186.324 21.402 186.864 21.126C187.416 20.838 187.968 20.694 188.52 20.694C189.408 20.694 190.11 20.976 190.626 21.54C191.142 22.104 191.4 22.902 191.4 23.934V28.488C191.4 28.896 191.418 29.142 191.454 29.226C191.49 29.298 191.604 29.346 191.796 29.37L192.786 29.496ZM198.09 24.294V23.664H202.842V24.294H198.09ZM208.717 18.264V17.76H214.135C215.455 17.76 216.439 18.066 217.087 18.678C217.747 19.278 218.077 20.082 218.077 21.09V21.504C218.077 22.512 217.747 23.322 217.087 23.934C216.439 24.546 215.455 24.852 214.135 24.852H212.263V28.488C212.263 28.896 212.281 29.142 212.317 29.226C212.353 29.298 212.467 29.346 212.659 29.37L214.009 29.496V30H208.717V29.496L209.707 29.37C209.899 29.346 210.013 29.298 210.049 29.226C210.085 29.142 210.103 28.896 210.103 28.488V19.272C210.103 18.864 210.085 18.624 210.049 18.552C210.013 18.468 209.899 18.414 209.707 18.39L208.717 18.264ZM214.135 18.39H212.263V24.222H214.135C214.663 24.222 215.065 24.012 215.341 23.592C215.629 23.172 215.773 22.596 215.773 21.864V20.73C215.773 19.998 215.629 19.428 215.341 19.02C215.065 18.6 214.663 18.39 214.135 18.39ZM219.115 21.378V20.874H222.463V22.35C223.195 21.246 224.065 20.694 225.073 20.694C225.445 20.694 225.805 20.814 226.153 21.054C226.501 21.282 226.789 21.714 227.017 22.35L225.415 23.214C225.247 22.722 225.049 22.392 224.821 22.224C224.605 22.044 224.371 21.954 224.119 21.954C223.855 21.954 223.597 22.038 223.345 22.206C223.093 22.374 222.835 22.686 222.571 23.142V28.488C222.571 28.896 222.589 29.142 222.625 29.226C222.661 29.298 222.775 29.346 222.967 29.37L224.317 29.496V30H219.115V29.496L220.105 29.37C220.297 29.346 220.411 29.298 220.447 29.226C220.483 29.142 220.501 28.896 220.501 28.488V22.386C220.501 21.978 220.483 21.738 220.447 21.666C220.411 21.582 220.297 21.528 220.105 21.504L219.115 21.378ZM236.522 29.55C236.33 29.73 236.096 29.88 235.82 30C235.556 30.12 235.232 30.18 234.848 30.18C234.356 30.18 233.942 30.072 233.606 29.856C233.282 29.64 233.066 29.334 232.958 28.938C232.562 29.37 232.124 29.688 231.644 29.892C231.176 30.084 230.696 30.18 230.204 30.18C229.376 30.18 228.758 29.952 228.35 29.496C227.942 29.028 227.738 28.446 227.738 27.75C227.738 27.042 227.996 26.472 228.512 26.04C229.028 25.596 229.94 25.374 231.248 25.374H232.886V23.916C232.886 22.92 232.754 22.242 232.49 21.882C232.238 21.51 231.884 21.324 231.428 21.324C231.128 21.324 230.852 21.402 230.6 21.558C230.348 21.702 230.168 21.978 230.06 22.386C229.964 22.782 229.982 23.358 230.114 24.114L228.134 23.826C228.038 23.274 228.098 22.764 228.314 22.296C228.542 21.816 228.92 21.432 229.448 21.144C229.976 20.844 230.648 20.694 231.464 20.694C232.388 20.694 233.102 20.844 233.606 21.144C234.11 21.444 234.458 21.84 234.65 22.332C234.854 22.824 234.956 23.352 234.956 23.916V28.074C234.956 28.686 235.01 29.07 235.118 29.226C235.226 29.382 235.346 29.46 235.478 29.46C235.694 29.46 235.934 29.334 236.198 29.082L236.522 29.55ZM230.996 29.226C231.308 29.226 231.614 29.148 231.914 28.992C232.226 28.824 232.55 28.518 232.886 28.074V26.004H231.536C230.948 26.004 230.522 26.142 230.258 26.418C229.994 26.694 229.862 27.126 229.862 27.714C229.862 28.194 229.958 28.566 230.15 28.83C230.342 29.094 230.624 29.226 230.996 29.226ZM243.435 28.128C243.279 28.86 242.979 29.388 242.535 29.712C242.103 30.024 241.575 30.18 240.951 30.18C240.315 30.18 239.793 30.042 239.385 29.766C238.977 29.478 238.677 29.1 238.485 28.632C238.293 28.164 238.197 27.666 238.197 27.138V22.386C238.197 21.978 238.179 21.738 238.143 21.666C238.107 21.582 237.993 21.528 237.801 21.504L236.811 21.378V20.874H238.197V18.786L240.267 18.372V20.874H243.147V21.504H240.267V27.498C240.267 28.266 240.363 28.8 240.555 29.1C240.747 29.388 240.993 29.532 241.293 29.532C241.605 29.532 241.845 29.412 242.013 29.172C242.193 28.932 242.307 28.494 242.355 27.858L243.435 28.128ZM252.895 25.248V25.608C252.895 26.988 252.535 28.098 251.815 28.938C251.107 29.766 250.093 30.18 248.773 30.18C247.453 30.18 246.433 29.766 245.713 28.938C245.005 28.098 244.651 26.988 244.651 25.608V25.248C244.651 23.868 245.005 22.764 245.713 21.936C246.433 21.108 247.453 20.694 248.773 20.694C250.093 20.694 251.107 21.108 251.815 21.936C252.535 22.764 252.895 23.868 252.895 25.248ZM250.681 24.888C250.681 23.604 250.519 22.692 250.195 22.152C249.871 21.6 249.397 21.324 248.773 21.324C248.161 21.324 247.687 21.6 247.351 22.152C247.027 22.692 246.865 23.604 246.865 24.888V25.968C246.865 27.24 247.027 28.158 247.351 28.722C247.687 29.274 248.161 29.55 248.773 29.55C249.397 29.55 249.871 29.274 250.195 28.722C250.519 28.158 250.681 27.24 250.681 25.968V24.888ZM258.928 24.294V23.664H263.68V24.294H258.928ZM283.685 29.496V30H278.753V29.496L279.743 29.37C279.935 29.346 280.049 29.298 280.085 29.226C280.121 29.142 280.139 28.896 280.139 28.488V19.236L276.845 28.56H274.919L271.661 19.29V28.488C271.661 28.896 271.679 29.142 271.715 29.226C271.751 29.298 271.865 29.346 272.057 29.37L273.047 29.496V30H269.555V29.496L270.545 29.37C270.737 29.346 270.851 29.298 270.887 29.226C270.923 29.142 270.941 28.896 270.941 28.488V19.272C270.941 18.864 270.923 18.624 270.887 18.552C270.851 18.468 270.737 18.414 270.545 18.39L269.555 18.264V17.76H273.353L276.647 27.12L279.995 17.76H283.685V18.264L282.695 18.39C282.503 18.414 282.389 18.468 282.353 18.552C282.317 18.624 282.299 18.864 282.299 19.272V28.488C282.299 28.896 282.317 29.142 282.353 29.226C282.389 29.298 282.503 29.346 282.695 29.37L283.685 29.496ZM292.993 27.858C292.777 28.698 292.375 29.298 291.787 29.658C291.199 30.006 290.515 30.18 289.735 30.18C288.295 30.18 287.215 29.766 286.495 28.938C285.775 28.098 285.415 26.988 285.415 25.608V25.248C285.415 23.868 285.751 22.764 286.423 21.936C287.107 21.108 288.091 20.694 289.375 20.694C290.095 20.694 290.731 20.838 291.283 21.126C291.847 21.402 292.285 21.804 292.597 22.332C292.921 22.86 293.083 23.502 293.083 24.258C293.083 24.438 293.071 24.63 293.047 24.834C293.035 25.038 293.005 25.242 292.957 25.446H287.629V25.968C287.629 27.24 287.809 28.158 288.169 28.722C288.529 29.274 289.111 29.55 289.915 29.55C290.431 29.55 290.869 29.4 291.229 29.1C291.589 28.788 291.793 28.266 291.841 27.534L292.993 27.858ZM289.375 21.324C288.787 21.324 288.349 21.594 288.061 22.134C287.773 22.674 287.629 23.568 287.629 24.816H290.887C290.935 24.576 290.965 24.354 290.977 24.15C291.001 23.934 291.013 23.736 291.013 23.556C291.013 22.788 290.863 22.224 290.563 21.864C290.263 21.504 289.867 21.324 289.375 21.324ZM294.402 21.378V20.874H297.75V22.35C298.482 21.246 299.352 20.694 300.36 20.694C300.732 20.694 301.092 20.814 301.44 21.054C301.788 21.282 302.076 21.714 302.304 22.35L300.702 23.214C300.534 22.722 300.336 22.392 300.108 22.224C299.892 22.044 299.658 21.954 299.406 21.954C299.142 21.954 298.884 22.038 298.632 22.206C298.38 22.374 298.122 22.686 297.858 23.142V28.488C297.858 28.896 297.876 29.142 297.912 29.226C297.948 29.298 298.062 29.346 298.254 29.37L299.604 29.496V30H294.402V29.496L295.392 29.37C295.584 29.346 295.698 29.298 295.734 29.226C295.77 29.142 295.788 28.896 295.788 28.488V22.386C295.788 21.978 295.77 21.738 295.734 21.666C295.698 21.582 295.584 21.528 295.392 21.504L294.402 21.378ZM311.219 25.248V25.608C311.219 26.988 310.859 28.098 310.139 28.938C309.431 29.766 308.417 30.18 307.097 30.18C305.777 30.18 304.757 29.766 304.037 28.938C303.329 28.098 302.975 26.988 302.975 25.608V25.248C302.975 23.868 303.329 22.764 304.037 21.936C304.757 21.108 305.777 20.694 307.097 20.694C308.417 20.694 309.431 21.108 310.139 21.936C310.859 22.764 311.219 23.868 311.219 25.248ZM309.005 24.888C309.005 23.604 308.843 22.692 308.519 22.152C308.195 21.6 307.721 21.324 307.097 21.324C306.485 21.324 306.011 21.6 305.675 22.152C305.351 22.692 305.189 23.604 305.189 24.888V25.968C305.189 27.24 305.351 28.158 305.675 28.722C306.011 29.274 306.485 29.55 307.097 29.55C307.721 29.55 308.195 29.274 308.519 28.722C308.843 28.158 309.005 27.24 309.005 25.968V24.888ZM312.434 17.184V16.68H315.89V28.488C315.89 28.896 315.908 29.142 315.944 29.226C315.98 29.298 316.094 29.346 316.286 29.37L317.276 29.496V30H312.434V29.496L313.424 29.37C313.616 29.346 313.73 29.298 313.766 29.226C313.802 29.142 313.82 28.896 313.82 28.488V18.192C313.82 17.784 313.802 17.544 313.766 17.472C313.73 17.388 313.616 17.334 313.424 17.31L312.434 17.184ZM327.155 29.55C326.963 29.73 326.729 29.88 326.453 30C326.189 30.12 325.865 30.18 325.481 30.18C324.989 30.18 324.575 30.072 324.239 29.856C323.915 29.64 323.699 29.334 323.591 28.938C323.195 29.37 322.757 29.688 322.277 29.892C321.809 30.084 321.329 30.18 320.837 30.18C320.009 30.18 319.391 29.952 318.983 29.496C318.575 29.028 318.371 28.446 318.371 27.75C318.371 27.042 318.629 26.472 319.145 26.04C319.661 25.596 320.573 25.374 321.881 25.374H323.519V23.916C323.519 22.92 323.387 22.242 323.123 21.882C322.871 21.51 322.517 21.324 322.061 21.324C321.761 21.324 321.485 21.402 321.233 21.558C320.981 21.702 320.801 21.978 320.693 22.386C320.597 22.782 320.615 23.358 320.747 24.114L318.767 23.826C318.671 23.274 318.731 22.764 318.947 22.296C319.175 21.816 319.553 21.432 320.081 21.144C320.609 20.844 321.281 20.694 322.097 20.694C323.021 20.694 323.735 20.844 324.239 21.144C324.743 21.444 325.091 21.84 325.283 22.332C325.487 22.824 325.589 23.352 325.589 23.916V28.074C325.589 28.686 325.643 29.07 325.751 29.226C325.859 29.382 325.979 29.46 326.111 29.46C326.327 29.46 326.567 29.334 326.831 29.082L327.155 29.55ZM321.629 29.226C321.941 29.226 322.247 29.148 322.547 28.992C322.859 28.824 323.183 28.518 323.519 28.074V26.004H322.169C321.581 26.004 321.155 26.142 320.891 26.418C320.627 26.694 320.495 27.126 320.495 27.714C320.495 28.194 320.591 28.566 320.783 28.83C320.975 29.094 321.257 29.226 321.629 29.226ZM335.987 29.514C336.539 29.514 336.983 29.34 337.319 28.992C337.655 28.632 337.841 28.164 337.877 27.588C337.913 27.012 337.763 26.394 337.427 25.734L339.029 24.69L341.225 28.758C341.405 29.094 341.537 29.292 341.621 29.352C341.717 29.4 341.861 29.436 342.053 29.46L342.935 29.55V30H339.713L338.525 27.768C338.477 28.428 338.219 28.998 337.751 29.478C337.295 29.946 336.611 30.18 335.699 30.18C334.607 30.18 333.719 29.934 333.035 29.442C332.351 28.95 332.009 28.242 332.009 27.318C332.009 26.922 332.099 26.526 332.279 26.13C332.459 25.734 332.783 25.326 333.251 24.906C333.731 24.486 334.415 24.036 335.303 23.556C334.427 23.184 333.761 22.728 333.305 22.188C332.861 21.648 332.639 21.072 332.639 20.46C332.639 19.968 332.777 19.506 333.053 19.074C333.329 18.63 333.719 18.27 334.223 17.994C334.727 17.718 335.327 17.58 336.023 17.58C336.731 17.58 337.337 17.712 337.841 17.976C338.357 18.228 338.747 18.57 339.011 19.002C339.287 19.422 339.425 19.89 339.425 20.406C339.425 21.138 339.161 21.756 338.633 22.26C338.105 22.764 337.433 23.238 336.617 23.682L335.987 24.024C335.315 24.396 334.841 24.834 334.565 25.338C334.301 25.842 334.169 26.442 334.169 27.138C334.169 27.942 334.331 28.542 334.655 28.938C334.991 29.322 335.435 29.514 335.987 29.514ZM334.799 20.334C334.799 20.814 334.871 21.306 335.015 21.81C335.159 22.314 335.453 22.788 335.897 23.232L336.041 23.16C336.497 22.92 336.815 22.566 336.995 22.098C337.175 21.63 337.265 21.078 337.265 20.442C337.265 19.65 337.151 19.08 336.923 18.732C336.707 18.384 336.413 18.21 336.041 18.21C335.681 18.21 335.381 18.366 335.141 18.678C334.913 18.99 334.799 19.542 334.799 20.334ZM349.895 29.496V30H346.421V29.496L347.411 29.37C347.543 29.346 347.639 29.322 347.699 29.298C347.759 29.262 347.813 29.184 347.861 29.064C347.909 28.944 347.975 28.752 348.059 28.488L351.497 17.76H353.045L356.501 28.488C356.585 28.752 356.651 28.944 356.699 29.064C356.747 29.184 356.801 29.262 356.861 29.298C356.933 29.322 357.029 29.346 357.149 29.37L358.139 29.496V30H353.171V29.496L354.161 29.37C354.353 29.346 354.455 29.298 354.467 29.226C354.491 29.142 354.437 28.896 354.305 28.488L353.621 26.256H349.463L348.761 28.488C348.641 28.896 348.587 29.142 348.599 29.226C348.611 29.298 348.713 29.346 348.905 29.37L349.895 29.496ZM349.679 25.626H353.423L351.569 19.65L349.679 25.626ZM362.543 26.598L361.301 26.31C360.497 26.118 359.897 25.776 359.501 25.284C359.117 24.78 358.925 24.186 358.925 23.502C358.925 22.998 359.033 22.536 359.249 22.116C359.477 21.684 359.831 21.342 360.311 21.09C360.791 20.826 361.415 20.694 362.183 20.694C363.011 20.694 363.683 20.826 364.199 21.09C364.715 21.354 365.081 21.702 365.297 22.134C365.513 22.566 365.579 23.028 365.495 23.52L363.515 23.88C363.683 23.064 363.635 22.434 363.371 21.99C363.119 21.546 362.693 21.324 362.093 21.324C361.673 21.324 361.325 21.45 361.049 21.702C360.773 21.942 360.635 22.29 360.635 22.746C360.635 23.166 360.755 23.538 360.995 23.862C361.235 24.174 361.589 24.384 362.057 24.492L363.299 24.78C364.187 24.984 364.829 25.308 365.225 25.752C365.621 26.184 365.819 26.724 365.819 27.372C365.819 28.176 365.519 28.848 364.919 29.388C364.331 29.916 363.449 30.18 362.273 30.18C361.865 30.18 361.415 30.12 360.923 30C360.443 29.868 359.999 29.634 359.591 29.298C359.195 28.962 358.907 28.482 358.727 27.858L359.897 27.39C359.981 28.182 360.251 28.74 360.707 29.064C361.175 29.388 361.697 29.55 362.273 29.55C362.813 29.55 363.251 29.43 363.587 29.19C363.935 28.938 364.109 28.578 364.109 28.11C364.109 27.786 363.995 27.492 363.767 27.228C363.551 26.952 363.143 26.742 362.543 26.598ZM375.854 25.248V25.608C375.854 26.988 375.494 28.098 374.774 28.938C374.066 29.766 373.052 30.18 371.732 30.18C370.412 30.18 369.392 29.766 368.672 28.938C367.964 28.098 367.61 26.988 367.61 25.608V25.248C367.61 23.868 367.964 22.764 368.672 21.936C369.392 21.108 370.412 20.694 371.732 20.694C373.052 20.694 374.066 21.108 374.774 21.936C375.494 22.764 375.854 23.868 375.854 25.248ZM373.64 24.888C373.64 23.604 373.478 22.692 373.154 22.152C372.83 21.6 372.356 21.324 371.732 21.324C371.12 21.324 370.646 21.6 370.31 22.152C369.986 22.692 369.824 23.604 369.824 24.888V25.968C369.824 27.24 369.986 28.158 370.31 28.722C370.646 29.274 371.12 29.55 371.732 29.55C372.356 29.55 372.83 29.274 373.154 28.722C373.478 28.158 373.64 27.24 373.64 25.968V24.888ZM381.659 21.324C381.083 21.324 380.651 21.6 380.363 22.152C380.087 22.692 379.949 23.604 379.949 24.888V25.968C379.949 27.24 380.111 28.158 380.435 28.722C380.759 29.274 381.287 29.55 382.019 29.55C382.559 29.55 382.997 29.4 383.333 29.1C383.681 28.788 383.879 28.266 383.927 27.534L385.079 27.858C384.863 28.698 384.467 29.298 383.891 29.658C383.327 30.006 382.661 30.18 381.893 30.18C380.513 30.18 379.475 29.766 378.779 28.938C378.083 28.098 377.735 26.988 377.735 25.608V25.248C377.735 23.868 378.071 22.764 378.743 21.936C379.415 21.108 380.387 20.694 381.659 20.694C382.499 20.694 383.183 20.862 383.711 21.198C384.251 21.522 384.629 21.954 384.845 22.494C385.073 23.022 385.133 23.592 385.025 24.204L383.045 24.492C383.177 23.484 383.123 22.704 382.883 22.152C382.643 21.6 382.235 21.324 381.659 21.324ZM388.66 19.326C388.288 19.326 387.988 19.212 387.76 18.984C387.532 18.744 387.418 18.438 387.418 18.066C387.418 17.694 387.532 17.394 387.76 17.166C387.988 16.938 388.288 16.824 388.66 16.824C389.02 16.824 389.32 16.938 389.56 17.166C389.8 17.394 389.92 17.694 389.92 18.066C389.92 18.438 389.8 18.744 389.56 18.984C389.32 19.212 389.02 19.326 388.66 19.326ZM386.248 21.378V20.874H389.704V28.488C389.704 28.896 389.722 29.142 389.758 29.226C389.794 29.298 389.908 29.346 390.1 29.37L391.09 29.496V30H386.248V29.496L387.238 29.37C387.43 29.346 387.544 29.298 387.58 29.226C387.616 29.142 387.634 28.896 387.634 28.488V22.386C387.634 21.978 387.616 21.738 387.58 21.666C387.544 21.582 387.43 21.528 387.238 21.504L386.248 21.378ZM400.965 29.55C400.773 29.73 400.539 29.88 400.263 30C399.999 30.12 399.675 30.18 399.291 30.18C398.799 30.18 398.385 30.072 398.049 29.856C397.725 29.64 397.509 29.334 397.401 28.938C397.005 29.37 396.567 29.688 396.087 29.892C395.619 30.084 395.139 30.18 394.647 30.18C393.819 30.18 393.201 29.952 392.793 29.496C392.385 29.028 392.181 28.446 392.181 27.75C392.181 27.042 392.439 26.472 392.955 26.04C393.471 25.596 394.383 25.374 395.691 25.374H397.329V23.916C397.329 22.92 397.197 22.242 396.933 21.882C396.681 21.51 396.327 21.324 395.871 21.324C395.571 21.324 395.295 21.402 395.043 21.558C394.791 21.702 394.611 21.978 394.503 22.386C394.407 22.782 394.425 23.358 394.557 24.114L392.577 23.826C392.481 23.274 392.541 22.764 392.757 22.296C392.985 21.816 393.363 21.432 393.891 21.144C394.419 20.844 395.091 20.694 395.907 20.694C396.831 20.694 397.545 20.844 398.049 21.144C398.553 21.444 398.901 21.84 399.093 22.332C399.297 22.824 399.399 23.352 399.399 23.916V28.074C399.399 28.686 399.453 29.07 399.561 29.226C399.669 29.382 399.789 29.46 399.921 29.46C400.137 29.46 400.377 29.334 400.641 29.082L400.965 29.55ZM395.439 29.226C395.751 29.226 396.057 29.148 396.357 28.992C396.669 28.824 396.993 28.518 397.329 28.074V26.004H395.979C395.391 26.004 394.965 26.142 394.701 26.418C394.437 26.694 394.305 27.126 394.305 27.714C394.305 28.194 394.401 28.566 394.593 28.83C394.785 29.094 395.067 29.226 395.439 29.226ZM411.299 29.496V30H407.951V28.506C407.615 29.058 407.237 29.478 406.817 29.766C406.409 30.042 405.923 30.18 405.359 30.18C404.351 30.18 403.547 29.784 402.947 28.992C402.359 28.188 402.065 27.066 402.065 25.626V25.266C402.065 23.874 402.407 22.764 403.091 21.936C403.787 21.108 404.735 20.694 405.935 20.694C406.655 20.694 407.291 20.874 407.843 21.234V18.192C407.843 17.784 407.825 17.544 407.789 17.472C407.753 17.388 407.639 17.334 407.447 17.31L406.457 17.184V16.68H409.913V28.488C409.913 28.896 409.931 29.142 409.967 29.226C410.003 29.298 410.117 29.346 410.309 29.37L411.299 29.496ZM404.279 26.166C404.279 27.282 404.417 28.098 404.693 28.614C404.969 29.13 405.347 29.388 405.827 29.388C406.127 29.388 406.439 29.268 406.763 29.028C407.099 28.776 407.459 28.272 407.843 27.516V22.08C407.387 21.624 406.829 21.396 406.169 21.396C405.509 21.396 405.029 21.696 404.729 22.296C404.429 22.884 404.279 23.694 404.279 24.726V26.166ZM420.766 25.248V25.608C420.766 26.988 420.406 28.098 419.686 28.938C418.978 29.766 417.964 30.18 416.644 30.18C415.324 30.18 414.304 29.766 413.584 28.938C412.876 28.098 412.522 26.988 412.522 25.608V25.248C412.522 23.868 412.876 22.764 413.584 21.936C414.304 21.108 415.324 20.694 416.644 20.694C417.964 20.694 418.978 21.108 419.686 21.936C420.406 22.764 420.766 23.868 420.766 25.248ZM418.552 24.888C418.552 23.604 418.39 22.692 418.066 22.152C417.742 21.6 417.268 21.324 416.644 21.324C416.032 21.324 415.558 21.6 415.222 22.152C414.898 22.692 414.736 23.604 414.736 24.888V25.968C414.736 27.24 414.898 28.158 415.222 28.722C415.558 29.274 416.032 29.55 416.644 29.55C417.268 29.55 417.742 29.274 418.066 28.722C418.39 28.158 418.552 27.24 418.552 25.968V24.888ZM426.211 26.598L424.969 26.31C424.165 26.118 423.565 25.776 423.169 25.284C422.785 24.78 422.593 24.186 422.593 23.502C422.593 22.998 422.701 22.536 422.917 22.116C423.145 21.684 423.499 21.342 423.979 21.09C424.459 20.826 425.083 20.694 425.851 20.694C426.679 20.694 427.351 20.826 427.867 21.09C428.383 21.354 428.749 21.702 428.965 22.134C429.181 22.566 429.247 23.028 429.163 23.52L427.183 23.88C427.351 23.064 427.303 22.434 427.039 21.99C426.787 21.546 426.361 21.324 425.761 21.324C425.341 21.324 424.993 21.45 424.717 21.702C424.441 21.942 424.303 22.29 424.303 22.746C424.303 23.166 424.423 23.538 424.663 23.862C424.903 24.174 425.257 24.384 425.725 24.492L426.967 24.78C427.855 24.984 428.497 25.308 428.893 25.752C429.289 26.184 429.487 26.724 429.487 27.372C429.487 28.176 429.187 28.848 428.587 29.388C427.999 29.916 427.117 30.18 425.941 30.18C425.533 30.18 425.083 30.12 424.591 30C424.111 29.868 423.667 29.634 423.259 29.298C422.863 28.962 422.575 28.482 422.395 27.858L423.565 27.39C423.649 28.182 423.919 28.74 424.375 29.064C424.843 29.388 425.365 29.55 425.941 29.55C426.481 29.55 426.919 29.43 427.255 29.19C427.603 28.938 427.777 28.578 427.777 28.11C427.777 27.786 427.663 27.492 427.435 27.228C427.219 26.952 426.811 26.742 426.211 26.598Z" fill="white"/>
<path d="M224.366 47.496V48H220.892V47.496L221.882 47.37C222.014 47.346 222.11 47.322 222.17 47.298C222.23 47.262 222.284 47.184 222.332 47.064C222.38 46.944 222.446 46.752 222.53 46.488L225.968 35.76H227.516L230.972 46.488C231.056 46.752 231.122 46.944 231.17 47.064C231.218 47.184 231.272 47.262 231.332 47.298C231.404 47.322 231.5 47.346 231.62 47.37L232.61 47.496V48H227.642V47.496L228.632 47.37C228.824 47.346 228.926 47.298 228.938 47.226C228.962 47.142 228.908 46.896 228.776 46.488L228.092 44.256H223.934L223.232 46.488C223.112 46.896 223.058 47.142 223.07 47.226C223.082 47.298 223.184 47.346 223.376 47.37L224.366 47.496ZM224.15 43.626H227.894L226.04 37.65L224.15 43.626ZM233.27 36.264V35.76H238.238C239.198 35.76 239.96 35.892 240.524 36.156C241.088 36.42 241.49 36.768 241.73 37.2C241.982 37.632 242.108 38.112 242.108 38.64V39.126C242.108 39.75 241.91 40.29 241.514 40.746C241.13 41.19 240.566 41.508 239.822 41.7C240.734 41.856 241.43 42.18 241.91 42.672C242.402 43.164 242.648 43.782 242.648 44.526V45.03C242.648 45.57 242.522 46.068 242.27 46.524C242.018 46.968 241.598 47.328 241.01 47.604C240.434 47.868 239.66 48 238.688 48H233.27V47.496L234.26 47.37C234.452 47.346 234.566 47.298 234.602 47.226C234.638 47.142 234.656 46.896 234.656 46.488V37.272C234.656 36.864 234.638 36.624 234.602 36.552C234.566 36.468 234.452 36.414 234.26 36.39L233.27 36.264ZM238.238 36.39H236.816V41.43H238.238C238.754 41.43 239.144 41.256 239.408 40.908C239.672 40.548 239.804 39.984 239.804 39.216V38.64C239.804 37.86 239.672 37.29 239.408 36.93C239.144 36.57 238.754 36.39 238.238 36.39ZM238.688 42.06H236.816V47.37H238.688C239.228 47.37 239.636 47.19 239.912 46.83C240.2 46.458 240.344 45.858 240.344 45.03V44.436C240.344 42.852 239.792 42.06 238.688 42.06ZM254.532 41.304V42.438C254.532 44.286 254.118 45.708 253.29 46.704C252.474 47.688 251.262 48.18 249.654 48.18C248.046 48.18 246.828 47.688 246 46.704C245.184 45.708 244.776 44.286 244.776 42.438V41.304C244.776 39.456 245.184 38.04 246 37.056C246.828 36.072 248.046 35.58 249.654 35.58C251.262 35.58 252.474 36.072 253.29 37.056C254.118 38.04 254.532 39.456 254.532 41.304ZM252.228 40.404C252.228 39.348 252.138 38.52 251.958 37.92C251.778 37.308 251.496 36.87 251.112 36.606C250.74 36.342 250.254 36.21 249.654 36.21C249.066 36.21 248.58 36.342 248.196 36.606C247.812 36.87 247.53 37.308 247.35 37.92C247.17 38.52 247.08 39.348 247.08 40.404V43.338C247.08 44.382 247.17 45.21 247.35 45.822C247.53 46.434 247.812 46.878 248.196 47.154C248.58 47.418 249.066 47.55 249.654 47.55C250.254 47.55 250.74 47.418 251.112 47.154C251.496 46.878 251.778 46.434 251.958 45.822C252.138 45.21 252.228 44.382 252.228 43.338V40.404ZM262.215 42.96V42.456H267.327V42.96L266.337 43.086C266.145 43.11 266.031 43.164 265.995 43.248C265.959 43.32 265.941 43.56 265.941 43.968V48H265.455C265.131 47.664 264.771 47.382 264.375 47.154C264.051 47.442 263.667 47.688 263.223 47.892C262.779 48.084 262.239 48.18 261.603 48.18C260.619 48.18 259.773 47.934 259.065 47.442C258.369 46.938 257.835 46.248 257.463 45.372C257.091 44.484 256.905 43.476 256.905 42.348V41.214C256.905 40.122 257.091 39.156 257.463 38.316C257.835 37.464 258.381 36.798 259.101 36.318C259.821 35.826 260.703 35.58 261.747 35.58C262.731 35.58 263.541 35.76 264.177 36.12C264.825 36.468 265.299 36.936 265.599 37.524C265.899 38.1 266.013 38.73 265.941 39.414L263.835 39.936C263.967 38.736 263.835 37.818 263.439 37.182C263.043 36.534 262.455 36.21 261.675 36.21C260.031 36.21 259.209 37.668 259.209 40.584V43.158C259.209 46.086 260.079 47.55 261.819 47.55C262.203 47.55 262.587 47.472 262.971 47.316C263.367 47.16 263.697 46.932 263.961 46.632V43.968C263.961 43.56 263.943 43.314 263.907 43.23C263.871 43.146 263.757 43.098 263.565 43.086L262.215 42.96ZM271.018 47.496V48H267.544V47.496L268.534 47.37C268.666 47.346 268.762 47.322 268.822 47.298C268.882 47.262 268.936 47.184 268.984 47.064C269.032 46.944 269.098 46.752 269.182 46.488L272.62 35.76H274.168L277.624 46.488C277.708 46.752 277.774 46.944 277.822 47.064C277.87 47.184 277.924 47.262 277.984 47.298C278.056 47.322 278.152 47.346 278.272 47.37L279.262 47.496V48H274.294V47.496L275.284 47.37C275.476 47.346 275.578 47.298 275.59 47.226C275.614 47.142 275.56 46.896 275.428 46.488L274.744 44.256H270.586L269.884 46.488C269.764 46.896 269.71 47.142 269.722 47.226C269.734 47.298 269.836 47.346 270.028 47.37L271.018 47.496ZM270.802 43.626H274.546L272.692 37.65L270.802 43.626ZM279.922 36.264V35.76H285.232C286.768 35.76 287.944 36.21 288.76 37.11C289.588 38.01 290.002 39.408 290.002 41.304V42.438C290.002 44.334 289.588 45.738 288.76 46.65C287.944 47.55 286.768 48 285.232 48H279.922V47.496L280.912 47.37C281.104 47.346 281.218 47.298 281.254 47.226C281.29 47.142 281.308 46.896 281.308 46.488V37.272C281.308 36.864 281.29 36.624 281.254 36.552C281.218 36.468 281.104 36.414 280.912 36.39L279.922 36.264ZM285.142 36.39H283.468V47.37H285.142C285.754 47.37 286.246 47.268 286.618 47.064C286.99 46.848 287.26 46.452 287.428 45.876C287.608 45.288 287.698 44.442 287.698 43.338V40.404C287.698 39.3 287.608 38.46 287.428 37.884C287.26 37.308 286.99 36.918 286.618 36.714C286.246 36.498 285.754 36.39 285.142 36.39ZM302.133 41.304V42.438C302.133 44.286 301.719 45.708 300.891 46.704C300.075 47.688 298.863 48.18 297.255 48.18C295.647 48.18 294.429 47.688 293.601 46.704C292.785 45.708 292.377 44.286 292.377 42.438V41.304C292.377 39.456 292.785 38.04 293.601 37.056C294.429 36.072 295.647 35.58 297.255 35.58C298.863 35.58 300.075 36.072 300.891 37.056C301.719 38.04 302.133 39.456 302.133 41.304ZM299.829 40.404C299.829 39.348 299.739 38.52 299.559 37.92C299.379 37.308 299.097 36.87 298.713 36.606C298.341 36.342 297.855 36.21 297.255 36.21C296.667 36.21 296.181 36.342 295.797 36.606C295.413 36.87 295.131 37.308 294.951 37.92C294.771 38.52 294.681 39.348 294.681 40.404V43.338C294.681 44.382 294.771 45.21 294.951 45.822C295.131 46.434 295.413 46.878 295.797 47.154C296.181 47.418 296.667 47.55 297.255 47.55C297.855 47.55 298.341 47.418 298.713 47.154C299.097 46.878 299.379 46.434 299.559 45.822C299.739 45.21 299.829 44.382 299.829 43.338V40.404ZM308.268 47.55C308.988 47.55 309.582 47.382 310.05 47.046C310.53 46.698 310.77 46.158 310.77 45.426C310.77 44.886 310.608 44.436 310.284 44.076C309.972 43.716 309.408 43.416 308.592 43.176L306.918 42.672C306.078 42.42 305.43 41.988 304.974 41.376C304.53 40.752 304.308 39.978 304.308 39.054C304.308 38.442 304.446 37.872 304.722 37.344C305.01 36.816 305.442 36.39 306.018 36.066C306.606 35.742 307.344 35.58 308.232 35.58C309.204 35.58 309.99 35.76 310.59 36.12C311.19 36.468 311.61 36.924 311.85 37.488C312.09 38.052 312.15 38.658 312.03 39.306L309.96 39.684C310.152 38.568 310.068 37.71 309.708 37.11C309.36 36.51 308.79 36.21 307.998 36.21C307.386 36.21 306.894 36.39 306.522 36.75C306.162 37.11 305.982 37.626 305.982 38.298C305.982 38.85 306.138 39.336 306.45 39.756C306.774 40.176 307.302 40.5 308.034 40.728L309.708 41.232C310.62 41.496 311.304 41.898 311.76 42.438C312.216 42.966 312.444 43.704 312.444 44.652C312.444 45.324 312.288 45.93 311.976 46.47C311.676 46.998 311.214 47.418 310.59 47.73C309.978 48.03 309.21 48.18 308.286 48.18C307.614 48.18 306.978 48.084 306.378 47.892C305.778 47.688 305.274 47.358 304.866 46.902C304.47 46.446 304.218 45.828 304.11 45.048L305.316 44.616C305.376 45.384 305.544 45.984 305.82 46.416C306.108 46.836 306.462 47.13 306.882 47.298C307.314 47.466 307.776 47.55 308.268 47.55Z" fill="white"/>
</svg>
